<svg xmlns="http://www.w3.org/2000/svg" xmlns:xlink="http://www.w3.org/1999/xlink" viewBox="0 0 65.529 81.529">
  <defs>
    <style>
      .cls-1 {
        fill: #cdde20;
      }

      .cls-2 {
        fill: #fff;
      }

      .cls-3 {
        filter: url(#Union_2);
      }
    </style>
    <filter id="Union_2" x="0" y="0" width="65.529" height="81.529" filterUnits="userSpaceOnUse">
      <feOffset dy="3" input="SourceAlpha"/>
      <feGaussianBlur stdDeviation="3" result="blur"/>
      <feFlood flood-opacity="0.161"/>
      <feComposite operator="in" in2="blur"/>
      <feComposite in="SourceGraphic"/>
    </filter>
  </defs>
  <g id="Group_35" data-name="Group 35" transform="translate(-1971 1063.529)">
    <g class="cls-3" transform="matrix(1, 0, 0, 1, 1971, -1063.53)">
      <path id="Union_2-2" data-name="Union 2" class="cls-1" d="M-4.235,1650.029a7.466,7.466,0,0,1,1.112-3.933l-.008,0c1.331-2.207-1.349-5.042-3.43-6.919a23.764,23.764,0,1,1,19.729.422c-2,1.809-4.325,3.083-3.637,6.309a7.465,7.465,0,0,1,1.235,4.124,7.5,7.5,0,0,1-15,0Z" transform="translate(29 -1588)"/>
    </g>
    <circle id="Ellipse_65" data-name="Ellipse 65" class="cls-2" cx="16.635" cy="16.635" r="16.635" transform="translate(1987.129 -1050.4)"/>
  </g>
</svg>
